<svg width="200" height="200" viewBox="0 0 200 200" fill="none" xmlns="http://www.w3.org/2000/svg">
<path d="M61.7511 47.6833C74.0347 37.8671 89.5913 32 106.517 32C146.232 32 178.424 64.2982 178.424 104.143C178.424 105.865 178.365 107.575 178.243 109.269C177.977 113.089 177.414 116.825 176.579 120.457L176.529 120.607C175.476 125.151 173.907 129.443 172.031 133.61H186.716C188.007 133.61 189.176 134.137 190.026 134.985C190.876 135.83 191.404 137.002 191.404 138.286C191.404 140.857 189.294 142.961 186.716 142.961H156.769C155.481 142.961 154.306 143.488 153.459 144.336C152.609 145.18 152.08 146.352 152.08 147.636C152.08 150.208 154.19 152.312 156.769 152.312H162.333C163.62 152.312 164.796 152.838 165.643 153.686C166.493 154.531 167.021 155.703 167.021 156.987C167.021 159.558 164.911 161.662 162.333 161.662H149.539C137.521 170.664 122.587 176 106.402 176C71.8359 176 43.0397 151.668 36.1477 119.246L36.1321 119.187C35.8288 117.757 35.6104 116.301 35.3946 114.842C34.8788 111.351 34.6099 107.779 34.6099 104.143C34.6099 94.1238 36.6468 84.5837 40.324 75.9133H28.1424C25.5631 75.9133 23.4528 73.796 23.4528 71.2083C23.4528 68.6206 25.5631 66.5033 28.1424 66.5033H54.9627C56.2508 66.5033 57.4263 65.9732 58.2736 65.12C59.124 64.27 59.6523 63.0906 59.6523 61.7983C59.6523 59.2106 57.542 57.0933 54.9627 57.0933H41.8985C39.3192 57.0933 37.2089 54.9761 37.2089 52.3883C37.2089 49.8006 39.3192 47.6833 41.8985 47.6833H61.7511Z" fill="#808080" fill-opacity="0.25"/>
<path fill-rule="evenodd" clip-rule="evenodd" d="M15.5924 66.2856H12.7504C10.1377 66.2856 8 68.4456 8 71.0856C8 73.7256 10.1377 75.8856 12.7504 75.8856H15.5924C18.2052 75.8856 20.3428 73.7256 20.3428 71.0856C20.3428 68.4456 18.2052 66.2856 15.5924 66.2856Z" fill="#727272" fill-opacity="0.25"/>
<path fill-rule="evenodd" clip-rule="evenodd" d="M134.286 139.314C134.286 140.64 122.312 141.714 107.543 141.714C92.773 141.714 80.8 140.64 80.8 139.314C80.8 137.989 92.773 136.914 107.543 136.914C122.312 136.914 134.286 137.989 134.286 139.314Z" fill="black" fill-opacity="0.1"/>
<path fill-rule="evenodd" clip-rule="evenodd" d="M174.857 161.6C172.217 161.6 170.057 159.44 170.057 156.8C170.057 154.16 172.217 152 174.857 152C177.497 152 179.657 154.16 179.657 156.8C179.657 159.44 177.497 161.6 174.857 161.6Z" fill="#727272" fill-opacity="0.25"/>
<path fill-rule="evenodd" clip-rule="evenodd" d="M126.914 94.8827L136.164 99.0234C137.17 99.4735 138.362 99.0166 138.813 98.008L147.929 77.6432C148.38 76.6347 147.927 75.4416 146.921 74.9915L132.641 68.5991C131.636 68.1492 130.444 68.6057 129.992 69.6142L126.319 77.8195C126.696 78.4153 126.914 79.1192 126.914 79.8715V94.8827Z" fill="#808080" fill-opacity="0.15"/>
<path fill-rule="evenodd" clip-rule="evenodd" d="M88.7997 103.835L82.6168 93.7141C82.0408 92.7712 80.8004 92.47 79.8603 93.0444L66.5087 101.201C65.5689 101.775 65.2708 103.016 65.8468 103.959L77.4788 122.999C78.0548 123.942 79.2954 124.244 80.2351 123.67L88.7997 118.437V103.835Z" fill="#808080" fill-opacity="0.15"/>
<path fill-rule="evenodd" clip-rule="evenodd" d="M123.029 126.749H92.6839C90.5481 126.749 88.7998 125.006 88.7998 122.877V79.8714C88.7998 77.7417 90.5481 76 92.6839 76H123.029C125.165 76 126.914 77.7417 126.914 79.8714V122.877C126.914 125.006 125.165 126.749 123.029 126.749Z" fill="#808080" fill-opacity="0.25"/>
<path d="M118.496 117.425C119.282 117.425 119.831 116.888 119.831 116.14C119.831 115.392 119.282 114.856 118.496 114.856C117.723 114.856 117.162 115.392 117.162 116.14C117.162 116.888 117.723 117.425 118.496 117.425ZM119.569 114.395C119.569 113.522 119.993 113.185 120.641 112.849C121.514 112.4 122.162 111.664 122.162 110.617C122.162 109.059 120.678 107.961 118.696 107.961C116.601 107.961 115.105 109.196 114.956 110.929L117.362 111.365C117.449 110.567 117.923 109.981 118.596 109.981C119.132 109.981 119.544 110.355 119.544 110.866C119.544 111.378 119.082 111.664 118.683 111.926C117.811 112.5 117.437 113.148 117.437 114.395H119.569Z" fill="white" fill-opacity="0.2"/>
<path fill-rule="evenodd" clip-rule="evenodd" d="M118.655 89.1024H96.2415C95.6015 89.1024 95.0775 88.6039 95.0775 87.995C95.0775 87.3852 95.6015 86.8867 96.2415 86.8867H118.655C119.295 86.8867 119.819 87.3852 119.819 87.995C119.819 88.6039 119.295 89.1024 118.655 89.1024Z" fill="white" fill-opacity="0.2"/>
<path fill-rule="evenodd" clip-rule="evenodd" d="M118.655 95.7493H96.2415C95.6015 95.7493 95.0775 95.2508 95.0775 94.6419C95.0775 94.0321 95.6015 93.5337 96.2415 93.5337H118.655C119.295 93.5337 119.819 94.0321 119.819 94.6419C119.819 95.2508 119.295 95.7493 118.655 95.7493Z" fill="white" fill-opacity="0.2"/>
<path fill-rule="evenodd" clip-rule="evenodd" d="M118.655 102.396H96.2415C95.6015 102.396 95.0775 101.898 95.0775 101.289C95.0775 100.68 95.6015 100.181 96.2415 100.181H118.655C119.295 100.181 119.819 100.68 119.819 101.289C119.819 101.898 119.295 102.396 118.655 102.396Z" fill="white" fill-opacity="0.2"/>
<path fill-rule="evenodd" clip-rule="evenodd" d="M111.209 109.136H95.9219C95.4853 109.136 95.128 108.661 95.128 108.082C95.128 107.501 95.4853 107.026 95.9219 107.026H111.209C111.646 107.026 112.003 107.501 112.003 108.082C112.003 108.661 111.646 109.136 111.209 109.136Z" fill="white" fill-opacity="0.2"/>
<path fill-rule="evenodd" clip-rule="evenodd" d="M107.941 115.69H96.2465C95.6037 115.69 95.0775 115.192 95.0775 114.583C95.0775 113.973 95.6037 113.474 96.2465 113.474H107.941C108.584 113.474 109.11 113.973 109.11 114.583C109.11 115.192 108.584 115.69 107.941 115.69Z" fill="white" fill-opacity="0.2"/>
<path fill-rule="evenodd" clip-rule="evenodd" d="M77.981 100.292L70.0958 105.448C69.8707 105.596 69.5651 105.531 69.417 105.304C69.2687 105.077 69.3318 104.772 69.557 104.624L77.4421 99.468C77.6673 99.3207 77.9728 99.3856 78.1212 99.6124C78.2693 99.8389 78.2062 100.145 77.981 100.292Z" fill="white" fill-opacity="0.2"/>
<path fill-rule="evenodd" clip-rule="evenodd" d="M79.5976 102.764L71.7125 107.921C71.4873 108.068 71.1817 108.003 71.0336 107.776C70.8853 107.55 70.9484 107.244 71.1736 107.096L79.0587 101.94C79.2839 101.793 79.5895 101.858 79.7378 102.085C79.8859 102.311 79.8228 102.617 79.5976 102.764Z" fill="white" fill-opacity="0.2"/>
<path fill-rule="evenodd" clip-rule="evenodd" d="M81.2143 105.236L73.3291 110.393C73.1039 110.54 72.7984 110.475 72.6503 110.249C72.5022 110.022 72.5651 109.716 72.7902 109.569L80.6754 104.412C80.9006 104.265 81.2063 104.33 81.3544 104.557C81.5025 104.783 81.4394 105.089 81.2143 105.236Z" fill="white" fill-opacity="0.2"/>
<path fill-rule="evenodd" clip-rule="evenodd" d="M80.2339 109.456L74.8558 112.973C74.7022 113.073 74.4611 112.979 74.3201 112.763C74.1789 112.548 74.1892 112.289 74.3428 112.188L79.7208 108.672C79.8744 108.571 80.1156 108.665 80.2568 108.881C80.3978 109.097 80.3875 109.356 80.2339 109.456Z" fill="white" fill-opacity="0.2"/>
<path fill-rule="evenodd" clip-rule="evenodd" d="M80.6783 112.646L76.5641 115.336C76.338 115.484 76.0316 115.42 75.8835 115.193C75.7352 114.966 75.7991 114.66 76.0253 114.512L80.1394 111.822C80.3656 111.674 80.6719 111.738 80.8202 111.965C80.9683 112.191 80.9044 112.498 80.6783 112.646Z" fill="white" fill-opacity="0.2"/>
<path fill-rule="evenodd" clip-rule="evenodd" d="M141.22 76.3407L132.71 72.2995C132.467 72.1841 132.363 71.8895 132.479 71.6451C132.595 71.4003 132.889 71.2947 133.132 71.4101L141.643 75.4513C141.886 75.5667 141.99 75.8613 141.873 76.1061C141.757 76.3505 141.463 76.4561 141.22 76.3407Z" fill="white" fill-opacity="0.2"/>
<path fill-rule="evenodd" clip-rule="evenodd" d="M139.953 79.009L131.443 74.9678C131.2 74.8524 131.096 74.5578 131.212 74.3134C131.328 74.0686 131.622 73.963 131.865 74.0784L140.376 78.1196C140.619 78.235 140.723 78.5296 140.606 78.7744C140.49 79.0188 140.196 79.1245 139.953 79.009Z" fill="white" fill-opacity="0.2"/>
<path fill-rule="evenodd" clip-rule="evenodd" d="M138.686 81.6773L130.176 77.6361C129.932 77.5207 129.829 77.2261 129.945 76.9817C130.061 76.7372 130.355 76.6313 130.598 76.7467L139.109 80.7879C139.352 80.9033 139.455 81.1982 139.339 81.4427C139.223 81.6871 138.929 81.7928 138.686 81.6773Z" fill="white" fill-opacity="0.2"/>
<path fill-rule="evenodd" clip-rule="evenodd" d="M134.574 83.0403L128.769 80.284C128.604 80.2053 128.558 79.9503 128.669 79.7176C128.78 79.4846 129.006 79.3585 129.172 79.4372L134.976 82.1935C135.142 82.2723 135.187 82.5272 135.077 82.7602C134.966 82.993 134.74 83.119 134.574 83.0403Z" fill="white" fill-opacity="0.2"/>
<path fill-rule="evenodd" clip-rule="evenodd" d="M132.084 85.0822L127.643 82.9736C127.399 82.8577 127.295 82.5628 127.411 82.3183C127.527 82.0735 127.822 81.9683 128.066 82.0842L132.506 84.1928C132.75 84.3087 132.855 84.6036 132.739 84.8484C132.623 85.0929 132.328 85.1981 132.084 85.0822Z" fill="white" fill-opacity="0.2"/>
</svg>
