<svg width="21" height="26" viewBox="0 0 21 26" fill="none" xmlns="http://www.w3.org/2000/svg">
<path d="M7.70283 26C7.70283 26 -3.82751 23.4637 1.32603 10.8758C1.32603 10.8758 2.49602 12.2746 2.33514 12.9477C2.33514 12.9477 3.2523 9.77051 5.23183 7.87251C6.93163 6.24161 8.65863 1.65685 7.06582 0C7.06582 0 14.9552 1.65685 15.8333 9.94431C15.8333 9.94431 16.8425 7.30371 18.9143 7.04271C18.9143 7.04271 18.2773 8.49351 18.9143 10.6697C18.9143 10.6697 25.4494 21.8562 14.1869 25.6373C14.1869 25.6373 17.563 21.8039 10.4032 15.2256C10.4032 15.2256 8.71523 18.7486 7.70573 19.9901C7.70283 19.9933 4.88673 23.1504 7.70283 26Z" fill="url(#paint0_linear_557_9)"/>
<path d="M7.70283 25C7.70283 25 -3.82751 22.5613 1.32603 10.4575C1.32603 10.4575 2.49602 11.8025 2.33514 12.4497C2.33514 12.4497 3.2523 9.39472 5.23183 7.56972C6.93163 6.00155 8.65863 1.59313 7.06582 0C7.06582 0 14.9552 1.59312 15.8333 9.56184C15.8333 9.56184 16.8425 7.0228 18.9143 6.77184C18.9143 6.77184 18.2773 8.16684 18.9143 10.2593C18.9143 10.2593 25.4494 21.0156 14.1869 24.6513C14.1869 24.6513 17.563 20.9653 10.4032 14.64C10.4032 14.64 8.71523 18.0275 7.70573 19.2213C7.70283 19.2243 4.88673 22.26 7.70283 25Z" fill="#E64020"/>
<defs>
<linearGradient id="paint0_linear_557_9" x1="-5.39978" y1="6.17371" x2="10.2001" y2="6.17371" gradientUnits="userSpaceOnUse">
<stop stop-color="#82EEFE"/>
<stop offset="0.25" stop-color="#193555"/>
<stop offset="0.524038" stop-color="#82EEFE"/>
<stop offset="0.774038" stop-color="#193555"/>
<stop offset="1" stop-color="#82EEFE"/>
</linearGradient>
</defs>
</svg>
