<svg width="166" height="45" viewBox="0 0 166 45" fill="none" xmlns="http://www.w3.org/2000/svg">
<g id="button">
<path id="Vector" d="M158.499 3.86902H6.64492C3.01818 3.86902 0.078125 6.80906 0.078125 10.4358V37.4707C0.078125 41.0974 3.01818 44.0375 6.64492 44.0375H158.499C162.125 44.0375 165.066 41.0974 165.066 37.4707V10.4358C165.066 6.80906 162.125 3.86902 158.499 3.86902Z" fill="#965A17"/>
<path id="Vector_2" d="M158.499 0.184692H6.64492C3.01818 0.184692 0.078125 3.12475 0.078125 6.75148V33.7864C0.078125 37.4131 3.01818 40.3531 6.64492 40.3531H158.499C162.125 40.3531 165.066 37.4131 165.066 33.7864V6.75148C165.066 3.12475 162.125 0.184692 158.499 0.184692Z" fill="url(#paint0_linear_6926_7562)"/>
<g id="Vector_3" style="mix-blend-mode:overlay" opacity="0.5">
<path d="M158.502 0.184692H6.64492C4.90392 0.184692 3.23418 0.876062 2.00277 2.1068C0.771364 3.33754 0.0790717 5.00691 0.078125 6.74791V9.88311C0.078125 8.14149 0.769997 6.4712 2.00151 5.23969C3.23302 4.00818 4.9033 3.31633 6.64492 3.31633H158.502C160.244 3.31633 161.914 4.00818 163.146 5.23969C164.377 6.4712 165.069 8.14149 165.069 9.88311V6.74791C165.068 5.00691 164.376 3.33754 163.144 2.1068C161.913 0.876062 160.243 0.184692 158.502 0.184692Z" fill="white"/>
</g>
</g>
<defs>
<linearGradient id="paint0_linear_6926_7562" x1="248494" y1="16413" x2="248494" y2="11894.5" gradientUnits="userSpaceOnUse">
<stop stop-color="#EEAC00"/>
<stop offset="0.32" stop-color="#F4C200"/>
<stop offset="0.75" stop-color="#F8DB00"/>
<stop offset="1" stop-color="#F0B200"/>
</linearGradient>
</defs>
</svg>
