<svg xmlns="http://www.w3.org/2000/svg" width="24" height="24" fill="currentColor" viewBox="0 0 24 24">
  <path d="M16.81 7.668a.378.378 0 0 1 .338.09c.084.081.11.196.066.299-.404.94-.592 1.485-.61 2.156.77.268 1.397.68 1.867 1.226.508.59.71 1.197.788 1.609.018.01.07.03.18.03h.636c.539 0 .978.378.978.843v1.644c0 .464-.439.842-.978.842h-.636c-.187 0-.239.061-.327.222-.468.84-1.199 1.51-2.114 1.938-.073.035-.098.065-.102.077v.025c.01.014.018.03.025.045l.201.46a.756.756 0 0 1-.022.667.965.965 0 0 1-.568.46l-1.256.41a1.159 1.159 0 0 1-.36.058c-.418 0-.797-.225-.947-.559a9.454 9.454 0 0 1-.282-.642.58.58 0 0 0-.032-.07h-.033c-.079 0-.198.01-.348.024-.31.029-.778.072-1.468.072-.765 0-1.24-.085-1.555-.142-.103-.018-.194-.036-.25-.04a.801.801 0 0 0-.053.103c-.133.305-.298.676-.304.69-.149.337-.53.564-.95.564-.123 0-.243-.02-.359-.058l-1.259-.41a.962.962 0 0 1-.565-.46.758.758 0 0 1-.019-.677c.007-.014.225-.465.344-.781.044-.116.017-.135-.095-.21l-.028-.018c-.763-.526-2.052-1.638-2.127-3.181a5.323 5.323 0 0 1 .17-1.67 3.103 3.103 0 0 1-.703-.296c-.587-.344-.897-.832-.897-1.41 0-.61.382-1.148.974-1.368.173-.064.375.005.45.154.074.15-.006.323-.18.387a.858.858 0 0 0-.56.828c0 .373.195.68.582.912.2.12.404.19.528.227a4.288 4.288 0 0 1 1.585-1.903c1.497-1.004 3.221-1.492 5.27-1.492.735 0 1.457.065 2.15.193.588-.968 1.525-1.58 2.855-1.868Zm-.215 5.286c-.414 0-.75.312-.75.696.001.385.336.697.75.697.413 0 .747-.312.747-.697 0-.384-.334-.696-.747-.696ZM9.561 2.77c2.117 0 3.834 1.726 3.834 3.855a3.86 3.86 0 0 1-.373 1.661c-3.22-.353-5.247.452-6.224 1.012a3.854 3.854 0 0 1-1.07-2.673c0-2.13 1.716-3.855 3.833-3.855ZM8.488 5.544v2.16h2.146v-2.16H8.488Z"/>
</svg>
