<svg viewBox="0 0 33 33" fill="none" xmlns="http://www.w3.org/2000/svg">
<path fill-rule="evenodd" clip-rule="evenodd" d="M22.8429 15.7847H27.1184V16.89H28.2241V18.9545H27.1184V21.1651L24.907 21.1655V22.2709H19.5261V20.0602L17.3147 20.0598V14.6786H18.4204V12.4675L20.6318 12.4671V11.3618H24.907V12.4675H27.1184V14.5312H25.0547V13.4259H20.4845V14.5312L19.3788 14.5316V19.1014H20.4845V20.2072H25.0547V19.1014H26.16V17.8484H22.8429V15.7847ZM11.9636 16.8905H13.0693V14.5317H11.9636V13.426H6.28806V17.9962H11.9636V16.8905ZM12.9216 12.4676H14.0273L14.0277 13.5737H15.133V17.8489H14.0277V18.9542L11.8163 18.9546H10.7105V20.0599H6.28806V21.166H5.18234V22.2713H4.22437V13.5733H5.32969V11.3623H12.9216V12.4676Z" fill="currentColor"/>
<path fill-rule="evenodd" clip-rule="evenodd" d="M17.3147 14.6782H18.4204V13.5732H17.3147V14.6782Z" fill="#E61973"/>
<path fill-rule="evenodd" clip-rule="evenodd" d="M19.5264 12.4671H20.6321V11.3618H19.5264V12.4671Z" fill="#FFB919"/>
<path fill-rule="evenodd" clip-rule="evenodd" d="M27.1184 16.89H28.2241V15.7847H27.1184V16.89Z" fill="#14E691"/>
<path fill-rule="evenodd" clip-rule="evenodd" d="M27.1184 20.0594H28.2241V18.9541H27.1184V20.0594Z" fill="#FF1928"/>
<path fill-rule="evenodd" clip-rule="evenodd" d="M24.907 22.2709H26.0127V21.1655H24.907V22.2709Z" fill="#FF4B00"/>
<path fill-rule="evenodd" clip-rule="evenodd" d="M18.4207 21.1654H19.5264V20.0601H18.4207V21.1654Z" fill="#1987E6"/>
<path fill-rule="evenodd" clip-rule="evenodd" d="M4.22412 13.5731H5.32984V12.4678H4.22412V13.5731Z" fill="#6414E6"/>
<path fill-rule="evenodd" clip-rule="evenodd" d="M12.9214 12.4671H14.0271V11.3618H12.9214V12.4671Z" fill="#FF6E00"/>
<path fill-rule="evenodd" clip-rule="evenodd" d="M10.7104 20.0594H11.8162V18.9541H10.7104V20.0594Z" fill="#E619DC"/>
<path fill-rule="evenodd" clip-rule="evenodd" d="M5.18213 22.2709H6.28785V21.1655H5.18213V22.2709Z" fill="#19BEE6"/>
</svg>
