<svg viewBox="0 0 32 33" fill="none" xmlns="http://www.w3.org/2000/svg">
<g id="slot">
<g id="Union">
<path d="M11.3127 14.1331H9.07853V8.13641L11.3127 8.1364V9.63557C13.2177 6.38095 16.2937 7.68816 17.8915 8.3672C18.1676 8.4845 18.3995 8.58307 18.5736 8.63612C20.8078 9.31679 21.9248 8.48392 21.9248 7.81763L23.7358 8.63612C23.3521 9.26543 22.979 9.86948 22.6188 10.4526C18.9961 16.318 16.6804 20.0674 18.0151 26.1264H12.9883L13.5468 21.6289C13.9609 18.4975 14.6501 16.9434 16.898 14.6328L19.6907 11.6345C19.1322 11.801 17.7917 12.0343 16.898 11.6345C12.4297 9.81651 11.2742 12.2942 11.3127 14.1331Z" fill="currentColor"/>
<path d="M3.11506 18.3047H1.74976V14.3938L3.11506 14.3938V15.3715C4.27926 13.2489 6.15902 14.1014 7.13549 14.5443C7.30417 14.6208 7.4459 14.6851 7.55232 14.7197C8.91763 15.1636 9.60028 14.6204 9.60028 14.1859L10.707 14.7197C10.4724 15.1302 10.2444 15.5242 10.0242 15.9046C7.81034 19.7299 6.39533 22.1748 7.21099 26.1264H4.13905L4.48037 23.1932C4.73343 21.151 5.15459 20.1375 6.52834 18.6305L8.23497 16.6751C7.89365 16.7838 7.07446 16.9359 6.52834 16.6751C3.79772 15.4895 3.09154 17.1054 3.11506 18.3047Z" fill="currentColor"/>
<path d="M21.2926 18.3047H22.6579C22.6344 17.1054 23.3406 15.4895 26.0712 16.6751C26.6173 16.9359 27.4365 16.7838 27.7779 16.6751L26.0712 18.6305C24.6975 20.1375 24.2763 21.151 24.0233 23.1932L23.6819 26.1264H26.7539C25.9382 22.1748 27.3532 19.7299 29.5671 15.9046C29.7872 15.5243 30.0153 15.1302 30.2498 14.7197L29.1432 14.1859C29.1432 14.6204 28.4605 15.1636 27.0952 14.7197C26.9888 14.6851 26.847 14.6208 26.6784 14.5443C25.7019 14.1014 23.8221 13.2489 22.6579 15.3715V14.3938L21.2926 14.3938V18.3047Z" fill="currentColor"/>
</g>
</g>
</svg>
