<svg width="40" height="40" viewBox="0 0 40 40" fill="none" xmlns="http://www.w3.org/2000/svg">
<rect width="40" height="40" rx="20" fill="#CE603D" fill-opacity="0.2"/>
<path d="M10.9515 28H14.2778V19.8139L9.47363 16.0926V26.5111C9.47363 27.2556 10.0277 28 10.9515 28Z" fill="#4285F4"/>
<path d="M25.7221 28H29.048C29.7869 28 30.5259 27.4417 30.5259 26.5116V16.0926L25.7217 19.8135V28H25.7221Z" fill="#34A853"/>
<path d="M25.7221 13.4884V19.8139L30.5263 16.0931V14.2324C30.5263 13.1166 29.6017 12 28.3082 12C27.7541 12 27.3844 12.1861 27.0152 12.3722L25.7217 13.488L25.7221 13.4884Z" fill="#FBBC04"/>
<path d="M14.2761 19.8139V13.4884L20.0041 17.7672L25.7317 13.4884V19.8139L20.0041 24.0926L14.2761 19.8139Z" fill="#EA4335"/>
<path d="M9.47363 14.2324V16.0931L14.2778 19.8139V13.4884L12.9844 12.3722C12.0606 11.8139 10.5823 12 9.84332 12.9301C9.65805 13.3023 9.47363 13.6745 9.47363 14.2324Z" fill="#C5221F"/>
</svg>
