<svg width="40" height="40" viewBox="0 0 40 40" fill="none" xmlns="http://www.w3.org/2000/svg">
<rect width="40" height="40" rx="20" fill="#FF4906" fill-opacity="0.2"/>
<circle cx="17" cy="12" r="5.25" stroke="#FF4906" stroke-width="2.5"/>
<circle cx="26.5" cy="13" r="4.25" stroke="#FF4906" stroke-width="2.5"/>
<rect x="17" y="21" width="13" height="10" rx="2.5" stroke="#FF4906" stroke-width="2.5"/>
<path d="M15.494 25.1661L16.1824 24.1228C17.1708 24.7749 17.1708 26.2251 16.1824 26.8772M15.494 25.1661L16.1824 26.8772M15.494 25.1661L16.1824 24.1228M15.494 25.1661L16.1824 24.1228M16.1824 26.8772L12.0587 29.5982C10.9617 30.322 9.5 29.5352 9.5 28.2209L9.5 22.7791C9.5 21.4648 10.9617 20.678 12.0587 21.4018M16.1824 26.8772L12.0587 21.4018M12.0587 21.4018L16.1824 24.1228M12.0587 21.4018L16.1824 24.1228" stroke="#FF4906" stroke-width="2.5"/>
</svg>
