<svg width="40" height="40" viewBox="0 0 40 40" fill="none" xmlns="http://www.w3.org/2000/svg">
<rect width="40" height="40" rx="20" fill="#00F2EA" fill-opacity="0.1"/>
<path d="M24.6894 16.6882C26.2213 17.7872 28.098 18.4338 30.1249 18.4338V14.5195C29.7413 14.5196 29.3587 14.4795 28.9834 14.3997V17.4807C26.9567 17.4807 25.0802 16.8341 23.5479 15.7352V23.7231C23.5479 27.719 20.3201 30.9581 16.3386 30.9581C14.853 30.9581 13.4722 30.5074 12.3252 29.7344C13.6343 31.0777 15.46 31.9111 17.4798 31.9111C21.4616 31.9111 24.6896 28.672 24.6896 24.6759V16.6882H24.6894ZM26.0976 12.7392C25.3147 11.8808 24.8006 10.7716 24.6894 9.5452V9.04175H23.6077C23.88 10.6004 24.8087 11.9321 26.0976 12.7392ZM14.8435 26.668C14.4061 26.0925 14.1697 25.3884 14.1708 24.6644C14.1708 22.8368 15.6471 21.355 17.4686 21.355C17.8081 21.3549 18.1455 21.4071 18.469 21.5101V17.5084C18.0909 17.4564 17.7094 17.4343 17.328 17.4424V20.5571C17.0042 20.4541 16.6667 20.4018 16.3271 20.4021C14.5057 20.4021 13.0294 21.8838 13.0294 23.7116C13.0294 25.004 13.7673 26.123 14.8435 26.668Z" fill="#FF004F"/>
<path d="M23.548 15.7351C25.0803 16.834 26.9567 17.4806 28.9834 17.4806V14.3996C27.8521 14.1577 26.8506 13.5644 26.0976 12.7392C24.8087 11.932 23.88 10.6004 23.6077 9.04175H20.7663V24.6757C20.7599 26.4983 19.2861 27.9741 17.4685 27.9741C16.3974 27.9741 15.4459 27.4617 14.8433 26.668C13.7672 26.123 13.0292 25.004 13.0292 23.7117C13.0292 21.8841 14.5056 20.4022 16.327 20.4022C16.676 20.4022 17.0124 20.4567 17.3279 20.5572V17.4425C13.4163 17.5236 10.2705 20.731 10.2705 24.6758C10.2705 26.645 11.0539 28.4301 12.3253 29.7345C13.4724 30.5074 14.8532 30.9582 16.3387 30.9582C20.3203 30.9582 23.548 27.7189 23.548 23.7231V15.7351H23.548Z" fill="white"/>
<path d="M28.9835 14.3996V13.5665C27.9633 13.5681 26.9632 13.2813 26.0977 12.7391C26.8639 13.581 27.8728 14.1614 28.9835 14.3996ZM23.6078 9.04177C23.5818 8.89281 23.5619 8.74287 23.548 8.59235V8.0889H19.6248V23.723C19.6186 25.5454 18.1448 27.0212 16.3271 27.0212C15.7934 27.0212 15.2896 26.894 14.8433 26.6681C15.446 27.4617 16.3975 27.974 17.4686 27.974C19.2859 27.974 20.76 26.4984 20.7664 24.6758V9.04177H23.6078ZM17.3281 17.4425V16.5556C17.0003 16.5106 16.6698 16.4881 16.3389 16.4882C12.357 16.4881 9.12915 19.7274 9.12915 23.723C9.12915 26.228 10.3977 28.4357 12.3255 29.7343C11.054 28.4301 10.2706 26.6448 10.2706 24.6757C10.2706 20.7311 13.4164 17.5236 17.3281 17.4425Z" fill="#00F2EA"/>
</svg>
