<svg width="40" height="40" viewBox="0 0 40 40" fill="none" xmlns="http://www.w3.org/2000/svg">
<rect width="40" height="40" rx="20" fill="url(#paint0_linear_27_2214)" fill-opacity="0.2"/>
<path d="M8.99927 31L10.5557 25.3511C9.59244 23.6992 9.08634 21.8198 9.08634 19.9025C9.09178 13.8907 14.0058 9 20.0463 9C22.9795 9 25.7277 10.1374 27.7956 12.1955C29.8635 14.2536 31.0009 16.9941 31.0009 19.9079C31.0009 25.9197 26.0814 30.8104 20.0463 30.8104H20.0409C18.207 30.8104 16.4057 30.3501 14.8058 29.4835L8.99927 31Z" fill="#20B038"/>
<path fill-rule="evenodd" clip-rule="evenodd" d="M17.2112 15.1743C16.999 14.7031 16.7758 14.6923 16.5745 14.6869C16.4112 14.6814 16.2208 14.6814 16.0303 14.6814C15.8398 14.6814 15.5351 14.7519 15.2739 15.0335C15.0127 15.3151 14.2834 15.9975 14.2834 17.3895C14.2834 18.776 15.3011 20.1192 15.4426 20.3087C15.5841 20.4983 17.4071 23.4392 20.2859 24.5711C22.6803 25.5135 23.1701 25.324 23.6871 25.2752C24.204 25.2265 25.3632 24.5928 25.6026 23.9321C25.8366 23.2713 25.8366 22.708 25.7659 22.5889C25.6951 22.4697 25.5047 22.3993 25.2217 22.2585C24.9387 22.1177 23.5456 21.4353 23.2844 21.3378C23.0232 21.2457 22.8327 21.1969 22.6477 21.4786C22.4572 21.7602 21.913 22.3939 21.7497 22.5835C21.5865 22.773 21.4178 22.7947 21.1348 22.6539C20.8518 22.513 19.9376 22.2152 18.8546 21.2511C18.0112 20.5037 17.4398 19.5776 17.2765 19.2959C17.1132 19.0143 17.2602 18.8626 17.4017 18.7218C17.5268 18.5972 17.6846 18.3914 17.8261 18.229C17.9676 18.0665 18.0166 17.9473 18.1091 17.7578C18.2016 17.5682 18.1581 17.4057 18.0873 17.2649C18.0166 17.1295 17.4615 15.7322 17.2112 15.1743Z" fill="#C4FFC9"/>
<defs>
<linearGradient id="paint0_linear_27_2214" x1="19.999" y1="39.998" x2="19.999" y2="-0.0013995" gradientUnits="userSpaceOnUse">
<stop stop-color="#20B038"/>
<stop offset="1" stop-color="#60D66A"/>
</linearGradient>
</defs>
</svg>
