<svg width="40" height="40" viewBox="0 0 40 40" fill="none" xmlns="http://www.w3.org/2000/svg">
<rect width="40" height="40" rx="20" fill="#FF0000" fill-opacity="0.15"/>
<path d="M31.985 13.99C31.6967 12.9192 30.8524 12.0749 29.7815 11.7866C27.8252 11.2512 19.9998 11.2512 19.9998 11.2512C19.9998 11.2512 12.1744 11.2512 10.218 11.766C9.1678 12.0543 8.30289 12.9192 8.01458 13.99C7.49976 15.9464 7.49976 20.0032 7.49976 20.0032C7.49976 20.0032 7.49976 24.0807 8.01458 26.0164C8.30289 27.0873 9.14721 27.9316 10.218 28.2199C12.195 28.7553 19.9998 28.7553 19.9998 28.7553C19.9998 28.7553 27.8252 28.7553 29.7815 28.2405C30.8524 27.9522 31.6967 27.1079 31.985 26.037C32.4998 24.0807 32.4998 20.0238 32.4998 20.0238C32.4998 20.0238 32.5204 15.9464 31.985 13.99Z" fill="#FF0000"/>
<path d="M17.5081 23.7512L24.0155 20.0032L17.5081 16.2553V23.7512Z" fill="white"/>
</svg>
