<svg width="25" height="24" viewBox="0 0 25 24" fill="none" xmlns="http://www.w3.org/2000/svg">
<g id="Setting/&#233;&#130;&#128;&#232;&#175;&#183;">
<path id="Subtract" fill-rule="evenodd" clip-rule="evenodd" d="M20.6462 12.5481C20.6462 12.2227 20.5662 11.904 20.4155 11.6293C20.3113 11.4392 20.1756 11.2747 20.0164 11.1453C19.8572 11.0159 19.6776 10.9241 19.4877 10.875C19.2978 10.826 19.1014 10.8208 18.9098 10.8596C18.7182 10.8984 18.535 10.9805 18.3708 11.1013L12.4844 14.2232L6.631 11.109C6.40711 10.9438 6.14898 10.8513 5.88362 10.8412C5.61826 10.8311 5.35544 10.9038 5.12265 11.0515C4.88986 11.1993 4.69567 11.4168 4.5604 11.6812C4.42513 11.9456 4.35376 12.2473 4.35376 12.5546V18.4286C4.35376 19.1106 4.58783 19.7646 5.00448 20.2468C5.42113 20.7291 5.98623 21 6.57546 21H18.4245C19.0138 21 19.5789 20.7291 19.9955 20.2468C20.4122 19.7646 20.6462 19.1106 20.6462 18.4286V12.5481ZM17.7738 3.75315C17.3572 3.27092 16.7921 3 16.2028 3H8.79716C8.20793 3 7.64283 3.27092 7.22618 3.75315C6.80953 4.23539 6.57546 4.88944 6.57546 5.57143V9.85714L12.5122 12.9375L18.4245 9.85714V5.57143C18.4245 4.88944 18.1905 4.23539 17.7738 3.75315ZM12.4997 9.71438C12.6992 9.71438 12.8907 9.63552 13.0324 9.49498V9.4954L14.985 7.55398L15.0162 7.52183C15.3317 7.19238 15.5052 6.75223 15.4993 6.29615C15.4935 5.84007 15.3088 5.40451 14.985 5.08326C14.6544 4.75552 14.2078 4.57162 13.7423 4.57162C13.2768 4.57162 12.8302 4.75552 12.4997 5.08326C12.1691 4.75552 11.7225 4.57162 11.257 4.57162C10.7915 4.57162 10.3449 4.75552 10.0144 5.08326C9.68982 5.4052 9.505 5.84194 9.49987 6.29907C9.49473 6.75619 9.6697 7.19697 9.98696 7.52612L10.0144 7.55355L11.967 9.49498C12.1086 9.63552 12.3001 9.71438 12.4997 9.71438Z" fill="currentColor"/>
</g>
</svg>
