<svg  viewBox="0 0 25 24" fill="none" xmlns="http://www.w3.org/2000/svg">
<path fill-rule="evenodd" clip-rule="evenodd" d="M18.8506 10.3507C18.3237 10.6544 18.3333 11.5743 18.3452 12.7193C18.347 12.8954 18.3489 13.0768 18.3489 13.2621C18.3489 13.4474 18.347 13.6288 18.3452 13.8049C18.3357 14.7204 18.3277 15.4921 18.5942 15.9198C17.5653 17.3361 16.0926 18.4092 14.3805 18.9349C14.1196 18.4139 13.3518 18.0365 12.4451 18.0365C11.3237 18.0365 10.4146 18.6139 10.4146 19.3262C10.4146 20.0384 11.3237 20.6158 12.4451 20.6158C13.4424 20.6158 14.2718 20.1591 14.4431 19.5571C16.341 19.0035 17.9732 17.8268 19.1034 16.2634C19.1654 16.2746 19.2325 16.2804 19.3049 16.2804C20.4136 16.2804 21.5 14.9291 21.5 13.2621C21.5 12.19 21.0506 11.2484 20.4349 10.713C20.1278 6.61414 16.7048 3.38403 12.5275 3.38403C8.36689 3.38403 4.95469 6.58819 4.62384 10.6635C3.9782 11.1892 3.5 12.1562 3.5 13.2621C3.5 14.9291 4.58643 16.2804 5.69513 16.2804C6.68057 16.2804 6.66946 15.2128 6.65481 13.8049L6.65481 13.8049C6.65298 13.6288 6.65109 13.4474 6.65109 13.2621C6.65109 13.0768 6.65298 12.8954 6.65481 12.7193L6.65481 12.7193C6.66634 11.6119 6.67567 10.715 6.19957 10.3826C6.65049 7.29206 9.31181 4.91873 12.5275 4.91873C15.732 4.91873 18.3861 7.27576 18.8506 10.3507ZM11.5944 9.31088C11.0943 9.31088 10.6889 9.71628 10.6889 10.2164V12.0274C10.6889 12.5274 11.0943 12.9328 11.5944 12.9328C12.0945 12.9328 12.4999 12.5274 12.4999 12.0274V10.2164C12.4999 9.71628 12.0945 9.31088 11.5944 9.31088ZM14.4755 10.2164C14.4755 9.71628 14.8809 9.31088 15.381 9.31088C15.8811 9.31088 16.2865 9.71628 16.2865 10.2164V12.0274C16.2865 12.5274 15.8811 12.9328 15.381 12.9328C14.8809 12.9328 14.4755 12.5274 14.4755 12.0274V10.2164Z" fill="currentColor"/>
</svg>
