<svg width="25" height="24" viewBox="0 0 25 24" fill="none" xmlns="http://www.w3.org/2000/svg">
<g id="Setting/&#230;&#138;&#165;&#232;&#161;&#168;">
<path id="Subtract" fill-rule="evenodd" clip-rule="evenodd" d="M8.3999 3C6.19076 3 4.3999 4.79086 4.3999 7V17C4.3999 19.2091 6.19076 21 8.3999 21H16.5999C18.809 21 20.5999 19.2091 20.5999 17V7C20.5999 4.79086 18.809 3 16.5999 3H8.3999ZM7.88248 18.3819H14.8772C15.4362 18.3819 15.8095 17.9115 15.8095 17.4433C15.8095 16.9729 15.3433 16.5046 14.8772 16.5046H7.88248C7.41631 16.5046 6.95014 16.975 6.95014 17.4433C6.95014 17.9136 7.41631 18.3819 7.88248 18.3819ZM7.88248 14.9099H17.0224C17.5814 14.9099 18.0476 14.4395 18.0476 13.9712C18.0476 13.5008 17.5814 13.0325 17.1152 13.0325H7.88248C7.41631 13.0325 6.95014 13.5029 6.95014 13.9712C6.95014 14.4416 7.41631 14.9099 7.88248 14.9099ZM17.6742 9.09224C17.8598 9.27997 18.1404 9.09224 18.1404 8.9045V5.89864C18.1404 5.71302 18.0454 5.6181 17.8598 5.6181H14.7822C14.5038 5.6181 14.411 5.89864 14.5966 6.08638L15.4362 6.93013L13.0104 8.99521C12.8226 9.18294 12.5421 9.18294 12.3565 8.90239L10.6774 7.21278C10.4897 7.02505 10.1163 7.02505 9.93068 7.21278L7.13365 10.0288C6.85311 10.3115 6.85311 10.8747 7.13365 11.1552C7.4142 11.4358 7.88037 11.4358 8.25373 11.1552L9.93279 9.4656C10.1205 9.27786 10.4939 9.27786 10.6795 9.4656L12.2658 11.1552C12.5463 11.3429 12.8269 11.3429 13.0125 11.1552L16.649 8.06075L17.6742 9.09224Z" fill="currentColor"/>
</g>
</svg>
