<svg width="25" height="24" viewBox="0 0 25 24" fill="none" xmlns="http://www.w3.org/2000/svg">
<g id="Setting/&#233;&#128;&#128;&#229;&#135;&#186;">
<path id="Union" fill-rule="evenodd" clip-rule="evenodd" d="M11.4353 3C9.08003 3 7.17073 4.9093 7.17073 7.26454C7.17073 9.61978 9.08003 11.5291 11.4353 11.5291H11.618C14.0742 11.5291 16.0653 9.53796 16.0653 7.08178V4.55074C16.0653 3.69429 15.3711 3 14.5146 3H11.4353ZM7.47071 13.3983C5.62346 13.3983 4.12598 14.8958 4.12598 16.743C4.12598 18.5903 5.62346 20.0878 7.47071 20.0878H13.2725C12.7643 19.317 12.4686 18.3938 12.4686 17.4016C12.4686 15.7456 13.2922 14.2821 14.5523 13.3983H7.47071ZM19.8285 14.9077C19.1592 14.2384 18.2515 13.8624 17.305 13.8624C16.3585 13.8624 15.4507 14.2384 14.7814 14.9077C14.1122 15.5769 13.7362 16.4847 13.7362 17.4312C13.7362 18.3777 14.1122 19.2854 14.7814 19.9547C15.4507 20.624 16.3585 21 17.305 21C18.2515 21 19.1592 20.624 19.8285 19.9547C20.4978 19.2854 20.8738 18.3777 20.8738 17.4312C20.8738 16.4847 20.4978 15.5769 19.8285 14.9077ZM17.2323 15.7493L17.2998 15.7039C17.4239 15.6308 17.5688 15.6011 17.7116 15.6194C17.8545 15.6377 17.9872 15.7031 18.0888 15.8051L18.1427 15.8661L19.419 17.5181L19.4618 17.5798C19.518 17.673 19.5498 17.7789 19.5544 17.8876C19.5589 17.9964 19.536 18.1045 19.4878 18.2021C19.4396 18.2997 19.3676 18.3836 19.2785 18.446C19.1894 18.5085 19.0859 18.5476 18.9778 18.5596L18.9057 18.5635H15.6828L15.6069 18.5589C15.4492 18.5402 15.3038 18.4642 15.1983 18.3455C15.0929 18.2267 15.0346 18.0734 15.0346 17.9146C15.0346 17.7558 15.0929 17.6025 15.1983 17.4837C15.3038 17.365 15.4492 17.289 15.6069 17.2703L15.6828 17.2657H17.584L17.1155 16.6603L17.0701 16.5928C16.997 16.4687 16.9673 16.3238 16.9856 16.181C17.0039 16.0381 17.0693 15.9054 17.1713 15.8038L17.2323 15.7493Z" fill="currentColor"/>
</g>
</svg>
