<svg width="25" height="24" viewBox="0 0 25 24" fill="none" xmlns="http://www.w3.org/2000/svg">
<path d="M20.7465 9.795C21.0849 9.72538 21.3891 9.5413 21.6078 9.27374C21.8265 9.00618 21.9464 8.67146 21.9473 8.3259V6C21.9468 5.60231 21.7886 5.22105 21.5074 4.93984C21.2262 4.65864 20.845 4.50045 20.4473 4.5H5.44727C5.04958 4.50045 4.66831 4.65864 4.38711 4.93984C4.1059 5.22105 3.94772 5.60231 3.94727 6V8.3259C3.94815 8.67146 4.06802 9.00618 4.28672 9.27374C4.50541 9.5413 4.80959 9.72538 5.14807 9.795C5.65607 9.89904 6.11256 10.1753 6.44039 10.5771C6.76821 10.9788 6.94726 11.4815 6.94726 12C6.94726 12.5185 6.76821 13.0212 6.44039 13.4229C6.11256 13.8247 5.65607 14.101 5.14807 14.205C4.80959 14.2746 4.50541 14.4587 4.28672 14.7263C4.06802 14.9938 3.94815 15.3285 3.94727 15.6741V18C3.94772 18.3977 4.1059 18.779 4.38711 19.0602C4.66831 19.3414 5.04958 19.4995 5.44727 19.5H20.4473C20.845 19.4995 21.2262 19.3414 21.5074 19.0602C21.7886 18.779 21.9468 18.3977 21.9473 18V15.6741C21.9464 15.3285 21.8265 14.9938 21.6078 14.7263C21.3891 14.4587 21.0849 14.2746 20.7465 14.205C20.2385 14.101 19.782 13.8247 19.4541 13.4229C19.1263 13.0212 18.9473 12.5185 18.9473 12C18.9473 11.4815 19.1263 10.9788 19.4541 10.5771C19.782 10.1753 20.2385 9.89904 20.7465 9.795ZM5.44727 15.6748C6.29417 15.5019 7.05535 15.0417 7.60201 14.3722C8.14868 13.7026 8.44727 12.8647 8.44727 12.0004C8.44727 11.136 8.14868 10.2981 7.60201 9.62857C7.05535 8.959 6.29417 8.49883 5.44727 8.3259V6H10.6973V18H5.44727V15.6748Z" fill="currentColor"/>
</svg>
