<svg width="25" height="24" viewBox="0 0 25 24" fill="none" xmlns="http://www.w3.org/2000/svg">
<g id="Setting/&#229;&#174;&#137;&#229;&#133;&#168;">
<path id="Subtract" fill-rule="evenodd" clip-rule="evenodd" d="M11.2129 3.22877L6.41143 4.88046C5.60404 5.1582 5.06201 5.91787 5.06201 6.77169V13.7707C5.06201 16.354 7.40681 18.6971 12.2329 20.9341L12.4852 20.9887L12.7446 20.9438C17.5172 18.9528 19.938 16.5398 19.938 13.7707V6.8199C19.938 5.97403 19.4058 5.21962 18.609 4.93583L13.8561 3.24308C13.0021 2.93893 12.0701 2.93389 11.2129 3.22877ZM16.4341 10.5288C16.7856 10.1774 16.7856 9.60752 16.4341 9.25605C16.0827 8.90458 15.5128 8.90458 15.1614 9.25605L11.7484 12.669L10.4696 11.4273C10.1129 11.081 9.54316 11.0895 9.19691 11.4461C8.85067 11.8027 8.85907 12.3725 9.2157 12.7187L11.1308 14.5782C11.4837 14.9208 12.0463 14.9166 12.3942 14.5688L16.4341 10.5288Z" fill="currentColor"/>
</g>
</svg>
