<svg width="16" height="16" viewBox="0 0 16 16" fill="none" xmlns="http://www.w3.org/2000/svg">
<path d="M14.9205 4.5957C14.7775 4.47628 14.6037 4.39949 14.4191 4.37407C14.2345 4.34866 14.0465 4.37565 13.8765 4.45196L10.715 5.85712L8.87421 2.5437C8.78761 2.3878 8.6609 2.25789 8.5072 2.16744C8.35349 2.07699 8.1784 2.0293 8.00006 2.0293C7.82172 2.0293 7.64663 2.07699 7.49293 2.16744C7.33923 2.25789 7.21251 2.3878 7.12592 2.5437L5.2851 5.85705L2.12311 4.45172C1.95298 4.37613 1.76513 4.34953 1.5807 4.37491C1.39628 4.4003 1.2226 4.47666 1.07922 4.5954C0.935836 4.71414 0.828448 4.87055 0.769142 5.04702C0.709836 5.22348 0.700966 5.413 0.74353 5.59424L2.33386 12.365C2.36412 12.4961 2.42079 12.6197 2.50039 12.7281C2.58 12.8366 2.68088 12.9276 2.79687 12.9958C2.91347 13.0644 3.04267 13.1089 3.17681 13.1267C3.31094 13.1444 3.44727 13.135 3.5777 13.099C6.47081 12.3003 9.52623 12.3 12.4195 13.0981C12.5499 13.1341 12.6861 13.1435 12.8202 13.1257C12.9543 13.108 13.0834 13.0635 13.2 12.9949C13.3159 12.9268 13.4167 12.8358 13.4963 12.7275C13.576 12.6191 13.6326 12.4957 13.663 12.3647L15.256 5.59479C15.2994 5.41355 15.2909 5.22378 15.2316 5.04712C15.1723 4.87047 15.0645 4.71405 14.9205 4.5957ZM10.4973 10.157C10.4905 10.2223 10.4709 10.2857 10.4396 10.3434C10.4083 10.4011 10.3659 10.4521 10.3149 10.4935C10.2638 10.5348 10.2051 10.5657 10.1421 10.5843C10.0791 10.6029 10.0131 10.6089 9.94775 10.6019C8.65285 10.4659 7.34727 10.4659 6.05237 10.6019C5.92074 10.6153 5.78917 10.576 5.68648 10.4925C5.5838 10.4091 5.51837 10.2884 5.50453 10.1568C5.49069 10.0252 5.52956 9.89351 5.61264 9.79054C5.69571 9.68757 5.81622 9.62172 5.94775 9.60742C7.3122 9.46411 8.68791 9.46411 10.0524 9.60742C10.1177 9.61428 10.181 9.63394 10.2387 9.66528C10.2964 9.69661 10.3474 9.739 10.3887 9.79004C10.43 9.84107 10.4609 9.89974 10.4795 9.9627C10.4981 10.0257 10.5042 10.0917 10.4973 10.157Z" fill="#D7FB67"/>
</svg>
