<svg width="24" height="24" viewBox="0 0 24 24" fill="none" xmlns="http://www.w3.org/2000/svg">
<path d="M16.1999 3.00078C16.8307 2.99545 17.4565 3.11529 18.0405 3.35391C18.6262 3.59325 19.1587 3.94711 19.6061 4.39453C20.0534 4.8419 20.4074 5.37375 20.6467 5.95938C20.8853 6.54335 21.0051 7.16923 20.9998 7.8L20.9967 7.97813C20.9638 8.86514 20.6857 9.72722 20.1912 10.4672C20.1195 10.5746 20.0429 10.6782 19.9631 10.7789C20.1382 10.8925 20.298 11.0171 20.4366 11.1539C20.7601 11.4737 20.9998 11.8904 20.9998 12.3844V18.4883C20.9998 19.3957 20.2194 20.0222 19.4186 20.3867C18.5641 20.7758 17.4254 21 16.1999 21C14.9743 21 13.8357 20.7758 12.9812 20.3867C12.6284 20.2261 12.2798 20.0146 11.9999 19.7508C11.72 20.0146 11.3714 20.2261 11.0187 20.3867C10.1641 20.7758 9.02553 21 7.79996 21C6.57438 21 5.43578 20.7758 4.58124 20.3867C3.78048 20.0222 3 19.3957 3 18.4883V6.27188C3.00016 5.36466 3.78062 4.73875 4.58124 4.37422C5.43578 3.98517 6.57438 3.76016 7.79996 3.76016C9.02553 3.76016 10.1641 3.98517 11.0187 4.37422C11.4481 4.56975 11.8705 4.84161 12.171 5.19062C12.5246 4.64476 12.9877 4.1741 13.5335 3.80937C14.3213 3.28301 15.247 3.00186 16.1944 3.00078V3L16.1968 3.00078C16.1978 3.00078 16.1988 3 16.1999 3V3.00078ZM11.3999 17.1344C11.2749 17.2067 11.147 17.2734 11.0179 17.332C10.1637 17.7197 9.02551 17.9445 7.79996 17.9445C6.5744 17.9445 5.43618 17.7197 4.58202 17.332C4.45293 17.2734 4.32501 17.2067 4.19999 17.1344V18.4883C4.19999 18.6369 4.35966 18.9671 5.07889 19.2945C5.74431 19.5974 6.70573 19.8 7.79996 19.8C8.89418 19.8 9.8556 19.5974 10.521 19.2945C11.2403 18.9671 11.3999 18.6369 11.3999 18.4883V17.1344ZM19.7998 17.1344C19.6748 17.2067 19.5469 17.2734 19.4178 17.332C18.5636 17.7197 17.4254 17.9445 16.1999 17.9445C14.9743 17.9445 13.8361 17.7197 12.9819 17.332C12.8529 17.2734 12.7249 17.2067 12.5999 17.1344V18.4883C12.5999 18.6369 12.7596 18.9671 13.4788 19.2945C14.1442 19.5974 15.1057 19.8 16.1999 19.8C17.2941 19.8 18.2555 19.5974 18.9209 19.2945C19.6402 18.9671 19.7998 18.6369 19.7998 18.4883V17.1344ZM4.19999 15.4406C4.20017 15.5837 4.35741 15.9119 5.07811 16.2391C5.7439 16.5413 6.70566 16.7445 7.79996 16.7445C8.89425 16.7445 9.85601 16.5413 10.5218 16.2391C11.2425 15.9119 11.3997 15.5837 11.3999 15.4406V14.0969C11.1456 14.2426 10.8615 14.3643 10.5577 14.4617C10.5395 14.468 10.5214 14.4751 10.5031 14.4812L10.4952 14.4836C9.62675 14.7624 8.719 14.8982 7.80699 14.8875L7.80777 14.8883C7.80517 14.8883 7.80256 14.8875 7.79996 14.8875C7.79736 14.8875 7.79474 14.8883 7.79214 14.8883V14.8875C6.88039 14.8981 5.97291 14.7623 5.10467 14.4836L5.09686 14.4812C5.08529 14.4774 5.074 14.4727 5.06248 14.4688C4.75083 14.3703 4.4601 14.245 4.19999 14.0961V15.4406ZM12.5999 15.4406C12.6001 15.5837 12.7573 15.9119 13.478 16.2391C14.1438 16.5413 15.1056 16.7445 16.1999 16.7445C17.2942 16.7445 18.2559 16.5413 18.9217 16.2391C19.6424 15.9119 19.7997 15.5837 19.7998 15.4406V14.0969C19.5455 14.2426 19.2614 14.3643 18.9577 14.4617C18.9395 14.468 18.9213 14.4751 18.903 14.4812L18.8952 14.4836C18.2438 14.6927 17.5704 14.8212 16.8897 14.868C16.6628 14.8836 16.435 14.8902 16.2069 14.8875L16.2077 14.8883C16.2051 14.8883 16.2025 14.8875 16.1999 14.8875C16.1973 14.8875 16.1947 14.8883 16.1921 14.8883V14.8875C15.2833 14.898 14.3789 14.7628 13.5132 14.4859V14.4867C13.1822 14.3859 12.8742 14.2535 12.5999 14.0961V15.4406ZM11.3913 11.0312C11.3297 11.0666 11.2664 11.1007 11.2015 11.1336C11.1942 11.1373 11.1869 11.1409 11.1796 11.1445C11.1156 11.1766 11.0503 11.2078 10.9835 11.2375C10.977 11.2404 10.9705 11.2432 10.964 11.2461C10.816 11.3111 10.6623 11.3723 10.5031 11.4258L10.4976 11.4273C9.62853 11.7097 8.71911 11.8484 7.80542 11.8398L7.80621 11.8406C7.80413 11.8406 7.80203 11.8398 7.79996 11.8398C7.79788 11.8398 7.79578 11.8406 7.79371 11.8406V11.8398C6.88029 11.8483 5.97114 11.7096 5.10232 11.4273L5.09686 11.4258C4.93742 11.3722 4.78335 11.3112 4.63514 11.2461C4.62863 11.2432 4.6221 11.2404 4.61561 11.2375C4.5488 11.2078 4.48353 11.1766 4.41952 11.1445C4.41222 11.1409 4.4049 11.1373 4.39764 11.1336C4.33276 11.1006 4.26943 11.0666 4.2078 11.0312C4.20528 11.0298 4.20251 11.0288 4.19999 11.0273V12.3844C4.19999 12.4678 4.24288 12.6132 4.45858 12.8047C4.673 12.995 5.01352 13.1863 5.47341 13.3414L5.60466 13.3805C5.7389 13.4207 5.874 13.4574 6.01013 13.4898C6.41812 13.587 6.83364 13.6486 7.2523 13.6742C7.43185 13.6852 7.61187 13.6907 7.79214 13.6883H7.80777C8.49664 13.6976 9.18303 13.6085 9.84603 13.425L10.1288 13.3406C10.5875 13.1857 10.9273 12.9946 11.1413 12.8047C11.3568 12.6134 11.3998 12.4678 11.3999 12.3844V11.0273C11.3972 11.0289 11.394 11.0297 11.3913 11.0312ZM13.3272 11.6453C13.0947 11.7616 12.921 11.8794 12.8015 11.9945C12.6431 12.1472 12.5999 12.2717 12.5999 12.3844C12.5999 12.3972 12.603 12.411 12.6054 12.4266C12.619 12.513 12.6757 12.6424 12.8585 12.8047C13.0737 12.9956 13.4158 13.1876 13.878 13.343C14.6256 13.5822 15.4072 13.6988 16.1921 13.6883H16.2077L16.5014 13.6859C17.1869 13.6674 17.8669 13.5521 18.5209 13.343C18.9835 13.1875 19.326 12.9957 19.5413 12.8047C19.7237 12.6427 19.7806 12.513 19.7944 12.4266C19.7968 12.411 19.7998 12.3972 19.7998 12.3844C19.7998 12.3026 19.7627 12.175 19.5928 12.007C19.4714 11.8872 19.2964 11.7651 19.0686 11.6477C18.7516 11.884 18.4056 12.0823 18.0366 12.2352C17.7474 12.3549 17.4484 12.4445 17.1444 12.5055C17.1262 12.5091 17.1079 12.5122 17.0897 12.5156C17.0522 12.5227 17.0148 12.5298 16.9772 12.5359C16.958 12.5391 16.9387 12.5424 16.9194 12.5453C16.8796 12.5513 16.8398 12.5567 16.7999 12.5617C16.7739 12.565 16.7478 12.5682 16.7217 12.5711C16.6965 12.5739 16.6713 12.5766 16.646 12.5789C16.6018 12.5831 16.5575 12.5869 16.5132 12.5898C16.5033 12.5905 16.4934 12.5908 16.4835 12.5914C16.4619 12.5927 16.4403 12.5951 16.4186 12.5961L16.3288 12.5977C16.3199 12.5979 16.3111 12.5983 16.3022 12.5984L16.1999 12.6008C16.1866 12.6008 16.1733 12.5993 16.16 12.5992C16.1249 12.5989 16.0897 12.5979 16.0546 12.5969C16.034 12.5962 16.0134 12.5962 15.9928 12.5953C15.936 12.5929 15.8793 12.5889 15.8225 12.5844C15.8184 12.584 15.8142 12.5839 15.81 12.5836C15.7542 12.579 15.6986 12.5729 15.6429 12.5664C15.6343 12.5654 15.6256 12.5651 15.6171 12.5641C15.4987 12.5496 15.3806 12.5312 15.2632 12.5078C15.2569 12.5066 15.2507 12.5044 15.2444 12.5031C15.2343 12.501 15.2241 12.499 15.2139 12.4969C14.5281 12.3529 13.8846 12.0617 13.3272 11.6453ZM15.9335 4.21016C15.3153 4.25603 14.7178 4.46097 14.1999 4.80703C13.6079 5.2026 13.1466 5.76485 12.8741 6.42266C12.6017 7.08043 12.5306 7.80406 12.6694 8.50234C12.8083 9.20068 13.1511 9.84262 13.6546 10.3461C13.6581 10.3496 13.662 10.3527 13.6655 10.3563L13.8226 10.4961L13.9476 10.6023C14.2188 10.8222 14.5193 10.9991 14.8382 11.1305C14.8496 11.1352 14.861 11.14 14.8725 11.1445C14.9364 11.17 15.0011 11.193 15.0663 11.2148C15.1964 11.258 15.3289 11.2944 15.4639 11.3227C15.4863 11.3274 15.5086 11.3324 15.5311 11.3367C16.1926 11.4618 16.8745 11.3973 17.5014 11.1539C17.5564 11.1324 17.6108 11.1094 17.6647 11.0852C17.6796 11.0785 17.6944 11.0717 17.7092 11.0648C18.0221 10.9192 18.3153 10.7291 18.5772 10.4961L18.7131 10.3742C18.8912 10.2003 19.0531 10.009 19.1928 9.8C19.5884 9.20799 19.7998 8.512 19.7998 7.8V7.79453L19.7975 7.61719C19.7809 7.20427 19.6924 6.79667 19.5358 6.41328C19.3568 5.97534 19.0922 5.57754 18.7577 5.24297C18.423 4.9083 18.0247 4.64307 17.5866 4.46406C17.1485 4.28507 16.6786 4.19543 16.2053 4.2H16.1999L15.9335 4.21016ZM11.3663 7.98906C11.3195 8.01544 11.272 8.04141 11.2234 8.06641C11.2011 8.07789 11.1788 8.08959 11.1562 8.10078C11.1124 8.12236 11.0677 8.1428 11.0226 8.16328C10.9967 8.17509 10.9707 8.18699 10.9445 8.19844C10.8926 8.22091 10.8399 8.24221 10.7866 8.26328C10.7668 8.27115 10.7473 8.27983 10.7273 8.2875C10.6912 8.30129 10.6546 8.31418 10.6179 8.32734C10.5797 8.34107 10.5418 8.3565 10.5031 8.36953L10.4999 8.37031C9.63199 8.65675 8.72237 8.79568 7.80855 8.78359L7.80933 8.78438C7.80625 8.78442 7.80303 8.78355 7.79996 8.78359C7.79688 8.78355 7.79366 8.78442 7.79058 8.78438V8.78359C6.87702 8.79559 5.96768 8.65666 5.09998 8.37031L5.09686 8.36953C5.05784 8.35643 5.01963 8.34116 4.98123 8.32734C4.94455 8.31417 4.90795 8.3013 4.87186 8.2875C4.85185 8.27982 4.8323 8.27115 4.81248 8.26328C4.75921 8.2422 4.70648 8.22091 4.65467 8.19844C4.62838 8.18698 4.60243 8.17509 4.57655 8.16328C4.53146 8.14279 4.48675 8.12236 4.44296 8.10078C4.42032 8.08959 4.39805 8.07789 4.37577 8.06641C4.32713 8.04141 4.2796 8.01545 4.2328 7.98906C4.22203 7.98299 4.21066 7.97802 4.19999 7.97188V9.32812C4.19999 9.41154 4.24288 9.55695 4.45858 9.74844C4.6729 9.93865 5.01309 10.1301 5.47263 10.2852H5.47341C6.22242 10.5285 7.00621 10.6483 7.79371 10.6398H7.80621C8.49537 10.6473 9.18184 10.557 9.84447 10.3711L10.1265 10.2852C10.5864 10.13 10.9269 9.93874 11.1413 9.74844C11.357 9.55695 11.3999 9.41154 11.3999 9.32812V7.97188C11.3891 7.97814 11.3773 7.98287 11.3663 7.98906ZM7.79996 4.96016C6.70565 4.96016 5.74432 5.1635 5.07889 5.46641C4.36011 5.79364 4.20019 6.12317 4.19999 6.27188C4.19999 6.35529 4.24288 6.5007 4.45858 6.69219C4.67386 6.8833 5.01608 7.07575 5.47888 7.23125H5.4781C5.85095 7.35417 6.23275 7.44563 6.6195 7.50469C7.00628 7.56356 7.39802 7.59041 7.79058 7.58437H7.80933L8.10308 7.58203C8.49487 7.57176 8.88471 7.52887 9.26869 7.45391C9.55669 7.39754 9.8414 7.3234 10.121 7.23125L10.289 7.17109C10.6675 7.02752 10.953 6.85939 11.1413 6.69219C11.357 6.5007 11.3999 6.35529 11.3999 6.27188C11.3997 6.12317 11.2398 5.79364 10.521 5.46641C9.85559 5.1635 8.89426 4.96016 7.79996 4.96016Z" fill="currentColor" />
</svg>
