<svg width="24" height="24" viewBox="0 0 24 24" fill="none" xmlns="http://www.w3.org/2000/svg">
<path d="M6.03112 17.2212C6.74699 17.2579 7.4265 17.5681 7.93572 18.095C8.47869 18.6569 8.78412 19.419 8.78412 20.2135V21H7.58418V20.2135C7.58418 19.7482 7.40525 19.3018 7.08732 18.9728C6.76953 18.644 6.33834 18.459 5.88894 18.4587C5.44061 18.4606 5.01097 18.6458 4.69446 18.9744C4.37769 19.3033 4.19995 19.7492 4.19995 20.2135V21H3V20.2135C3 19.4207 3.30359 18.6598 3.84449 18.0982C4.38539 17.5366 5.11955 17.2199 5.88581 17.2172H5.88816L6.03112 17.2212ZM11.9996 15.6442C12.7654 15.6443 13.5002 15.9594 14.0417 16.5196C14.5831 17.0799 14.887 17.8402 14.887 18.6325H14.8878V21H13.6878V18.6325H13.687C13.687 18.1693 13.5091 17.7249 13.1925 17.3974C12.8761 17.0701 12.4471 16.8858 11.9996 16.8858C11.552 16.8858 11.1224 17.0699 10.8059 17.3974C10.4894 17.7249 10.3114 18.1694 10.3114 18.6325V20.9992H9.11145V18.6325C9.11145 17.8401 9.41599 17.0799 9.95751 16.5196C10.499 15.9593 11.2338 15.6443 11.9996 15.6442ZM18.2571 17.2212C18.9709 17.2604 19.6478 17.572 20.1547 18.0982C20.6955 18.6598 21 19.4208 21 20.2135V21H19.8001V20.2135C19.8001 19.7493 19.6214 19.3033 19.3048 18.9744C18.9883 18.646 18.5585 18.4606 18.1103 18.4587C17.6611 18.4591 17.2304 18.6442 16.9127 18.9728C16.5946 19.3019 16.4158 19.7481 16.4158 20.2135V21H15.2159V20.2135C15.2159 19.4189 15.5212 18.6569 16.0643 18.095C16.6073 17.5332 17.3439 17.2172 18.1118 17.2172H18.1142L18.2571 17.2212ZM5.88816 12.483C7.06322 12.4831 8.01619 13.4689 8.01619 14.6848C8.01591 15.9004 7.06305 16.8864 5.88816 16.8866C4.71312 16.8866 3.7604 15.9005 3.76012 14.6848C3.76012 13.4688 4.71294 12.483 5.88816 12.483ZM18.1118 12.483C19.2868 12.4832 20.2399 13.469 20.2399 14.6848C20.2396 15.9003 19.2866 16.8863 18.1118 16.8866C16.9368 16.8866 15.9841 15.9005 15.9838 14.6848C15.9838 13.4688 16.9366 12.483 18.1118 12.483ZM5.88816 13.7245C5.37566 13.7245 4.96007 14.1545 4.96007 14.6848C4.96035 15.2148 5.37583 15.645 5.88816 15.645C6.40034 15.6448 6.81596 15.2147 6.81624 14.6848C6.81624 14.1546 6.40051 13.7247 5.88816 13.7245ZM18.1118 13.7245C17.5993 13.7245 17.1838 14.1545 17.1838 14.6848C17.184 15.2148 17.5995 15.645 18.1118 15.645C18.6239 15.6447 19.0396 15.2146 19.0399 14.6848C19.0399 14.1547 18.6241 13.7248 18.1118 13.7245ZM11.9996 10.9019C13.1748 10.902 14.1276 11.8878 14.1276 13.1037C14.1274 14.3194 13.1746 15.3055 11.9996 15.3055C10.8247 15.3054 9.87186 14.3194 9.87158 13.1037C9.87158 11.8878 10.8245 10.902 11.9996 10.9019ZM11.9996 12.1435C11.4872 12.1436 11.0715 12.5735 11.0715 13.1037C11.0718 13.6337 11.4874 14.0639 11.9996 14.064C12.5119 14.0639 12.9274 13.6337 12.9277 13.1037C12.9277 12.5735 12.512 12.1435 11.9996 12.1435ZM6.42485 6.50236L6.66 6.98895L7.18185 7.06736L8.37711 7.24599L7.51777 8.1238L7.1381 8.51098L7.22404 9.05496L7.4209 10.2989L6.34829 9.7016L5.88816 9.44537L5.42802 9.7016L4.34291 10.3054L4.55306 9.04931L4.64368 8.50775L4.26713 8.1238L3.40701 7.24599L4.60227 7.06736L5.12022 6.98976L5.34912 6.5064L5.88269 5.37963L6.42485 6.50236ZM18.6501 6.5064L18.8782 6.98976L19.3969 7.06736L20.5922 7.24599L19.7329 8.1238L19.3555 8.50855L19.4462 9.04931L19.6563 10.3054L18.5712 9.7016L18.1111 9.44537L17.6517 9.7016L16.5783 10.2989L16.7752 9.05496L16.8619 8.51017L16.4822 8.1238L15.6221 7.24599L16.8174 7.06736L17.3384 6.98895L17.5744 6.50236L18.1173 5.37963L18.6501 6.5064ZM12.5386 4.1397L12.7668 4.62226L13.2925 4.70066L14.5112 4.88091L13.623 5.76276L13.2449 6.13781L13.3347 6.67453L13.5433 7.91769L12.4644 7.32925L11.9996 7.07544L11.5356 7.32925L10.4567 7.91769L10.6645 6.67453L10.7544 6.13781L10.3762 5.76276L9.48878 4.88091L10.7067 4.70066L11.2317 4.62226L11.4606 4.1397L11.9996 3L12.5386 4.1397Z" fill="currentColor" fill-opacity="1"/>
</svg>
